<svg xmlns="http://www.w3.org/2000/svg" viewBox="0 0 23 23"><path d="M1 1h7v7h-7zM15 1h7v7h-7zM2 2v5h5v-5zM12 2h1v1h-1zM16 2v5h5v-5zM3 3h3v3h-3zM9 3h2v1h-1v1h1v1h-1v3h-1zM17 3h3v3h-3zM11 4h1v1h-1zM12 5h2v6h-1v-2h-1v-1h1v-2h-1zM11 6h1v2h-1zM1 9h1v1h1v-1h5v1h-4v1h2v1h1v1h-1v1h-3v-1h1v-1h-1v1h-1v1h-1zM10 9h1v1h-1zM15 9h5v1h-3v1h-1v-1h-1zM8 10h2v1h-1v1h1v-1h1v2h2v1h1v-1h1v1h2v2h-1v1h-2v2h-1v-2h-1v-1h1v-1h-1v1h-1v2h1v1h1v1h-1v1h1v1h-2v-1h-1v-1h-1v-4h1v-1h-1v-1h1v-1h-1v1h-2v-1h1v-1h-1v-1h1zM21 10h1v1h-1zM12 11h1v1h-1zM14 11h1v1h-1zM17 11h2v1h-1v2h-1v-1h-1v-1h1zM20 11h1v1h-1zM19 12h1v1h-1zM21 12h1v1h-1zM20 13h1v1h1v1h-1v1h-1zM18 14h1v1h-1zM1 15h7v7h-7zM14 15v1h1v-1zM2 16v5h5v-5zM18 16h2v1h-2zM21 16h1v1h-1zM3 17h3v3h-3zM17 17h1v2h-2v-1h1zM20 17h1v1h-1zM19 18h1v1h-1zM14 19h1v1h-1zM18 19h1v1h1v1h-2v1h-1v-2h1zM9 21h1v1h-1zM14 21h1v1h-1zM20 21h1v1h-1z"/></svg>